<svg width="64" height="64" viewBox="0 0 64 64" fill="none" xmlns="http://www.w3.org/2000/svg">
  <defs>
    <linearGradient id="kai-icon-bg" x1="8" y1="5" x2="58" y2="62" gradientUnits="userSpaceOnUse">
      <stop stop-color="#171322"/>
      <stop offset="0.58" stop-color="#1F1830"/>
      <stop offset="1" stop-color="#2A203D"/>
    </linearGradient>
    <linearGradient id="kai-icon-ring" x1="14" y1="10" x2="52" y2="55" gradientUnits="userSpaceOnUse">
      <stop stop-color="#FFE0C8"/>
      <stop offset="0.42" stop-color="#FF8EA3"/>
      <stop offset="1" stop-color="#9F8CFF"/>
    </linearGradient>
  </defs>
  <rect x="3" y="3" width="58" height="58" rx="17" fill="url(#kai-icon-bg)"/>
  <rect x="3.5" y="3.5" width="57" height="57" rx="16.5" stroke="#F7F2EB" stroke-opacity="0.12"/>
  <path d="M15.5 32.7C15.5 22.2 23.1 14.6 33.2 14.6C42.5 14.6 50 21.1 50 30.7C50 41 42.5 49.4 32.2 49.4C22.9 49.4 15.5 42.7 15.5 32.7Z" stroke="url(#kai-icon-ring)" stroke-width="3.7" stroke-linecap="round" stroke-dasharray="91 39" transform="rotate(-24 32.8 32)"/>
  <path d="M23.5 19V45" stroke="#F9F5EE" stroke-width="5.3" stroke-linecap="round"/>
  <path d="M39.7 19.5L28.7 32L40.8 44.5" stroke="#F9F5EE" stroke-width="5.3" stroke-linecap="round" stroke-linejoin="round"/>
  <circle cx="46.5" cy="17.2" r="3" fill="#FFE0C8"/>
  <circle cx="46.5" cy="17.2" r="5.7" fill="#FFE0C8" fill-opacity="0.14"/>
</svg>
